<svg version="1" xmlns="http://www.w3.org/2000/svg" width="933.333" height="933.333" viewBox="0 0 700.000000 700.000000"><path d="M324.8 22.5c-.2.2-3 .6-6.3.9-12.4 1.2-29.2 3.8-39.5 6.2-3.6.9-7.5 1.7-8.6 2-9.8 1.9-33.3 9.9-49.3 16.7C174.6 68 128.6 102.3 98 140c-2.5 3-4.7 5.7-5 6-2.6 2.4-16.2 22-24.6 35.5-14 22.5-29.7 59.8-35.8 85.5-.2.8-.9 3.3-1.5 5.5-1.1 4.4-4.7 22.6-5.6 29-.4 2.2-.8 5-1 6.1-2.7 16.5-2.7 66.5-.1 83.4.2 1.4.7 4.7 1.1 7.5.3 2.7 1.3 8.1 2 12 .8 3.8 1.6 8.1 1.9 9.5.2 1.4 1.3 6.1 2.5 10.5 14.5 56.5 43 107.3 83.4 148.4 27.3 27.8 55.8 48.5 89.8 65.4 7.4 3.7 13.8 6.7 14.2 6.7.3 0 3.1 1.1 6 2.5 13.4 6.1 50.4 17 65.2 19.2 1.7.2 5.5.8 8.5 1.4 3 .5 7.5 1.2 10 1.5 2.5.3 7.9.9 12 1.3 7.8.9 56.3.7 61.5-.3 1.7-.3 5-.7 7.5-1 3.9-.4 8.6-1.1 21.5-3.2 1.7-.2 4.4-.9 6-1.3 1.7-.5 4.8-1.3 7-1.7 5.2-1 4.6-.8 15-3.8 8.9-2.5 22.1-6.8 26-8.5 1.1-.5 3.6-1.5 5.5-2.2 23.6-8.4 59-28.9 82-47.4 22.5-18 38.4-34 56-56.3 3.7-4.8 9.8-13.2 13.4-18.7 3.7-5.5 7.1-10.5 7.6-11.2.6-.7 1-1.7 1-2.2 0-.5.6-1.6 1.3-2.3 2.1-2.2 19.3-35.7 20.2-39.3.1-.6.8-2.4 1.4-4 8.5-20.4 15.8-45.7 19.6-68.3 1.4-8.8 1.6-9.7 3.5-27.7.8-8 .6-56.2-.3-60-.3-1.1-.8-4.7-1.1-8-.8-6.9-2.2-16.1-3.6-22.5-.5-2.5-1.2-5.6-1.4-7-.7-4.2-4.4-18-7.5-28.3-13.1-42.3-38.5-87.2-68.3-120.1l-4.3-4.8-5.7 16.3c-5.8 17-15.7 45.5-32.3 92.9-1.8 5.2-6.9 19.8-11.3 32.5-4.4 12.6-11 31.5-14.7 42-3.6 10.4-7.5 21.7-8.6 25-1.1 3.3-2.4 6.9-2.9 8-.5 1.1-2.1 5.6-3.5 10-1.5 4.4-3.1 8.5-3.6 9.1-1.1 1.4-170.6 1.7-171.4.3-.3-.4.8-7 2.4-14.6 1.7-7.6 3.2-14.9 3.5-16.3.3-1.4 1.8-8.8 3.5-16.5 1.6-7.7 3.2-15.1 3.5-16.5.2-1.4 2.8-13.3 5.6-26.5s5.3-25.1 5.6-26.5c.2-1.4.9-4.5 1.4-7 .6-2.5 1.2-5.4 1.5-6.5.2-1.1 1.9-9.4 3.9-18.5 4.7-22.4 8.4-40 9-43 .3-1.4.7-3.4 1-4.5.2-1.1 2.3-10.8 4.5-21.5 11.4-53.6 18.4-86.3 20.1-94 1.1-4.7 2.2-9.9 2.5-11.5.2-1.7.7-4.4 1-6 .3-1.7.8-3.8 1.1-4.7.6-2.1-.3-2.4-15.1-4.3-2.2-.2-6.2-.8-9-1.1-5-.7-57.1-1.5-57.7-.9z"/><path d="M419.1 24.4c-.5 1.2-1.1 3.6-1.4 5.2-.3 1.6-1.3 6.3-2.2 10.4-.9 4.1-2.9 13.9-4.6 21.8-1.6 7.9-3.8 18.2-4.8 23-1.1 4.8-2.2 9.8-2.4 11.2-.7 3.5-10.7 51.1-11.3 53.5-.2.5-1 4.6-1.9 9-2.5 11.9-3.1 14.4-7 33-4.5 20.9-4.3 19.9-5.5 26-1.3 6.1-1 4.9-6 28.5-2.3 10.7-4.4 20.4-4.6 21.5-.4 1.9-2 9.5-3 14.2-.9 4.5-14.4 67.9-14.9 70.1l-.5 2.2 76.2-.2 76.3-.3 8.2-23.5c4.5-12.9 9.6-27.3 11.2-32 13-37.5 16.9-48.7 17.4-50 .6-1.6 17.6-50.2 30.7-88 7.5-21.5 9.6-27.8 18-51.5 5.6-16 11-31.4 18.5-53 4.2-12.1 8.5-24.4 9.6-27.3 1-2.9 1.9-5.5 1.9-5.7 0-.3-44.3-.5-98.5-.5l-98.6.1-.8 2.3z"/></svg>